<?xml version="1.0" encoding="UTF-8" standalone="no"?>
<!-- Uploaded to: SVG Repo, www.svgrepo.com, Generator: SVG Repo Mixer Tools -->

<svg
   width="800px"
   height="800px"
   viewBox="0 0 15 15"
   fill="none"
   version="1.1"
   id="svg3"
   sodipodi:docname="favicon.svg"
   inkscape:version="1.4.2 (ebf0e940d0, 2025-05-08)"
   xmlns:inkscape="http://www.inkscape.org/namespaces/inkscape"
   xmlns:sodipodi="http://sodipodi.sourceforge.net/DTD/sodipodi-0.dtd"
   xmlns="http://www.w3.org/2000/svg"
   xmlns:svg="http://www.w3.org/2000/svg">
  <defs
     id="defs3" />
  <sodipodi:namedview
     id="namedview3"
     pagecolor="#ffffff"
     bordercolor="#000000"
     borderopacity="0.25"
     inkscape:showpageshadow="2"
     inkscape:pageopacity="0.0"
     inkscape:pagecheckerboard="0"
     inkscape:deskcolor="#d1d1d1"
     inkscape:zoom="0.57375"
     inkscape:cx="789.54248"
     inkscape:cy="479.30283"
     inkscape:window-width="2048"
     inkscape:window-height="1129"
     inkscape:window-x="0"
     inkscape:window-y="0"
     inkscape:window-maximized="1"
     inkscape:current-layer="svg3" />
  <path
     d="M 0,7.49996 C 0,3.52583 3.09098,0.27365 7,0.0163574 V 4.0354 C 5.30385,4.27801 4,5.73672 4,7.49996 4,9.43295 5.567,11 7.5,11 8.28618,11 9.01181,10.7407 9.5961,10.3031 l 2.8419,2.842 C 11.1188,14.3 9.39113,15 7.5,15 3.35786,15 0,11.6421 0,7.49996 Z"
     fill="#000000"
     id="path1"
     style="fill:#00b2f4;fill-opacity:1"
     sodipodi:nodetypes="sccssccss" />
  <path
     d="M 13.1451,12.438 C 14.3001,11.1187 15,9.39107 15,7.49996 15,6.46644 14.7909,5.48175 14.4128,4.58586 L 10.7552,6.21147 C 10.9132,6.61024 11,7.04496 11,7.49996 11,8.28611 10.7408,9.01174 10.3032,9.59602 Z"
     fill="#000000"
     id="path2"
     sodipodi:nodetypes="csccscc"
     style="fill:#62e262;fill-opacity:1" />
  <path
     d="M 8,4.0354 V 0.0163574 C 10.5416,0.183645 12.7373,1.61699 13.9626,3.69166 l -3.7085,1.6482 C 9.71063,4.64791 8.91203,4.16585 8,4.0354 Z"
     fill="#000000"
     id="path3"
     sodipodi:nodetypes="ccccc"
     style="fill:#ffb800;fill-opacity:1" />
</svg>
